<svg width="232" height="236" viewBox="0 0 232 236" fill="none" xmlns="http://www.w3.org/2000/svg">
<g filter="url(#filter0_d_307_85)">
<path d="M183.073 108.826C179.124 111.145 179.124 116.855 183.073 119.174L224.17 143.306C226.998 144.967 227.968 148.59 226.349 151.442L204.257 190.358C202.604 193.269 198.888 194.265 196.001 192.57L156.192 169.194C152.004 166.735 146.782 170.01 147.173 174.851L150.943 221.517C151.225 225.01 148.467 228 144.962 228H88.369C84.7372 228 81.9381 224.799 82.4227 221.199L88.5657 175.568C89.2332 170.61 83.8956 167.06 79.5812 169.594L40.2805 192.671C37.461 194.327 33.8351 193.42 32.1266 190.632L4.88591 146.184C2.97714 143.069 4.27092 138.986 7.62505 137.539L51.3233 118.689C55.8355 116.743 56.2225 110.494 51.9849 108.006L12.2849 84.694C9.45695 83.0334 8.48619 79.4099 10.1052 76.5579L32.1975 37.6422C33.8503 34.7306 37.5663 33.7351 40.4534 35.4304L79.5812 58.4062C83.8956 60.9396 89.2332 57.3902 88.5657 52.4317L82.4227 6.80052C81.9381 3.20119 84.7372 0 88.369 0H144.962C148.467 0 151.225 2.99029 150.943 6.4831L147.173 53.1493C146.782 57.99 152.004 61.2654 156.192 58.8064L196.001 35.4304C198.888 33.7351 202.604 34.7306 204.257 37.6422L226.349 76.558C227.968 79.4099 226.998 83.0334 224.17 84.694L183.073 108.826Z" fill="#FF6416"/>
</g>
<defs>
<filter id="filter0_d_307_85" x="0" y="0" width="231.133" height="236" filterUnits="userSpaceOnUse" color-interpolation-filters="sRGB">
<feFlood flood-opacity="0" result="BackgroundImageFix"/>
<feColorMatrix in="SourceAlpha" type="matrix" values="0 0 0 0 0 0 0 0 0 0 0 0 0 0 0 0 0 0 127 0" result="hardAlpha"/>
<feOffset dy="4"/>
<feGaussianBlur stdDeviation="2"/>
<feComposite in2="hardAlpha" operator="out"/>
<feColorMatrix type="matrix" values="0 0 0 0 0 0 0 0 0 0 0 0 0 0 0 0 0 0 0.25 0"/>
<feBlend mode="normal" in2="BackgroundImageFix" result="effect1_dropShadow_307_85"/>
<feBlend mode="normal" in="SourceGraphic" in2="effect1_dropShadow_307_85" result="shape"/>
</filter>
</defs>
</svg>
