<svg width="234" height="78" viewBox="0 0 234 78" fill="none" xmlns="http://www.w3.org/2000/svg">
<path d="M230.798 8.043C230.48 8.22984 230.48 8.6899 230.798 8.87674L233.761 10.6156C233.989 10.7494 234.067 11.0413 233.937 11.2711L232.334 14.0927C232.201 14.3272 231.902 14.4075 231.669 14.2709L228.81 12.5929C228.472 12.3948 228.051 12.6587 228.083 13.0487L228.353 16.3974C228.376 16.6788 228.154 16.9197 227.871 16.9197H223.754C223.462 16.9197 223.236 16.6618 223.275 16.3718L223.715 13.1065C223.769 12.707 223.338 12.421 222.991 12.6252L220.173 14.279C219.945 14.4124 219.653 14.3394 219.515 14.1148L217.535 10.8858C217.382 10.6348 217.486 10.3058 217.756 10.1893L220.891 8.83766C221.255 8.68083 221.286 8.1774 220.944 7.97691L218.094 6.30414C217.866 6.17034 217.788 5.87839 217.919 5.64861L219.521 2.82709C219.654 2.5925 219.954 2.51229 220.187 2.64888L222.991 4.29459C223.338 4.4987 223.769 4.21273 223.715 3.81322L223.275 0.547919C223.236 0.257921 223.462 0 223.754 0H227.871C228.154 0 228.376 0.240928 228.353 0.522344L228.083 3.87104C228.051 4.26105 228.472 4.52496 228.81 4.32683L231.669 2.64888C231.902 2.51229 232.201 2.5925 232.334 2.82708L233.937 5.64861C234.067 5.87839 233.989 6.17034 233.761 6.30414L230.798 8.043Z" fill="#FF7631"/>
<path d="M15.1291 61.8924C10.415 61.8924 6.71491 60.057 4.02895 56.3862C1.34298 52.6607 0 47.3189 0 40.3608C0 37.4571 0.356301 34.252 1.0689 30.7456C1.83632 27.2392 2.96004 23.7601 4.44006 20.3085C5.9749 16.8021 7.86604 13.6244 10.1135 10.7755C12.3609 7.87171 15.0195 5.54323 18.0891 3.79002C21.1588 2.03681 24.6122 1.16021 28.4493 1.16021C30.8612 1.16021 32.9168 1.37936 34.616 1.81766C36.3153 2.20117 37.7405 2.72166 38.8917 3.37911C39.385 3.65305 39.5494 4.22832 39.385 5.10492L36.9183 17.5965C36.7539 18.5279 36.3153 18.9936 35.6027 18.9936C34.9449 18.9936 34.616 18.6375 34.616 17.9253L34.5338 15.542C34.3694 10.8302 33.7664 7.62516 32.7249 5.92674C31.7382 4.17353 30.176 3.29693 28.0382 3.29693C25.5167 3.29693 23.2144 3.98178 21.1314 5.35147C19.1032 6.72116 17.2395 8.55655 15.5402 10.8576C13.8958 13.1587 12.4431 15.7063 11.1824 18.5005C9.97644 21.2947 8.96235 24.1437 8.14011 27.0474C7.3727 29.9512 6.76973 32.6905 6.3312 35.2656C5.94749 37.8406 5.75564 40.0321 5.75564 41.8401C5.75564 47.812 6.63269 52.3046 8.38679 55.3179C10.1957 58.2764 12.5254 59.7557 15.3758 59.7557C17.1299 59.7557 18.6921 59.2626 20.0625 58.2764C21.4329 57.2355 22.4196 55.3727 23.0225 52.6881L27.1337 34.6903C27.4078 33.5945 27.4352 32.8275 27.2159 32.3892C27.0515 31.8961 26.3389 31.5948 25.0781 31.4852L22.2003 31.1565C21.4877 31.1017 21.1314 30.8004 21.1314 30.2525C21.1314 29.595 21.6248 29.2663 22.6114 29.2663H37.4939C38.2065 29.2663 38.5628 29.5403 38.5628 30.0881C38.5628 30.6908 38.1516 31.0469 37.3294 31.1565L36.0961 31.3209C34.8901 31.4852 34.0953 31.8139 33.7116 32.307C33.3827 32.8001 33.0812 33.6219 32.8071 34.7725L28.0382 55.4001C27.9285 56.0027 27.6271 56.578 27.1337 57.1259C26.6952 57.6737 25.9826 58.249 24.9959 58.8517C23.6255 59.6735 22.1455 60.3857 20.5558 60.9884C18.9662 61.5911 17.1573 61.8924 15.1291 61.8924Z" fill="white"/>
<path d="M53.7471 61.8924C51.116 61.8924 48.7589 61.0158 46.6759 59.2626C44.5929 57.5094 42.921 55.0439 41.6603 51.8663C40.4543 48.6338 39.8514 44.9082 39.8514 40.6896C39.8514 36.3613 40.4817 32.5536 41.7425 29.2663C43.0033 25.979 44.7299 23.404 46.9226 21.5412C49.1152 19.6785 51.5545 18.7471 54.2404 18.7471C57.4746 18.7471 60.0783 20.0894 62.0517 22.774C64.0798 25.4038 65.0939 29.7046 65.0939 35.6765C65.0939 37.4845 64.4087 38.3885 63.0383 38.3885H47.4159C46.3196 38.3885 45.7714 39.0185 45.7714 40.2786C45.7714 46.0861 46.6211 50.4418 48.3204 53.3455C50.0196 56.2493 52.1849 57.7011 54.816 57.7011C56.899 57.7011 58.5983 56.9615 59.9139 55.4822C61.2294 54.003 62.2983 51.5101 63.1206 48.0037C63.285 47.4011 63.6413 47.0997 64.1895 47.0997C64.8473 47.0997 65.0939 47.6476 64.9295 48.7434C64.0524 53.6195 62.6546 57.0437 60.7361 59.0161C58.8176 60.9336 56.4879 61.8924 53.7471 61.8924ZM47.1692 36.3339H55.4738C58.1049 36.3339 59.4205 34.9642 59.4205 32.2248C59.4205 28.6636 58.982 25.8695 58.1049 23.8423C57.2279 21.8152 55.9123 20.8016 54.1582 20.8016C52.0204 20.8016 50.2115 22.0343 48.7315 24.4998C47.3063 26.9652 46.3744 30.4716 45.9359 35.019C45.8263 35.8956 46.2374 36.3339 47.1692 36.3339Z" fill="white"/>
<path d="M69.6548 61.1528C68.8325 61.1528 68.4214 60.8514 68.4214 60.2488C68.4214 59.7557 68.7777 59.427 69.4903 59.2626L70.477 59.0982C71.6281 58.8791 72.3681 58.5504 72.697 58.1121C73.0807 57.619 73.2726 56.7971 73.2726 55.6466V28.0336C73.2726 27.0474 73.1081 26.39 72.7793 26.0612C72.5052 25.6777 71.9844 25.4312 71.217 25.3216L69.4903 25.0751C68.7777 25.0203 68.4214 24.7189 68.4214 24.1711C68.4214 23.7328 68.8599 23.4314 69.737 23.2671C71.4363 22.9931 72.7244 22.5548 73.6015 21.9522C74.5333 21.3495 75.4926 20.6099 76.4793 19.7332C76.9726 19.2402 77.3838 18.9936 77.7127 18.9936C78.206 18.9936 78.4527 19.3223 78.4527 19.9798V23.678C78.4527 24.1711 78.6171 24.4998 78.946 24.6641C79.3297 24.7737 79.7408 24.6094 80.1794 24.1711C82.372 22.0891 84.2905 20.6646 85.935 19.8976C87.6343 19.1306 89.4158 18.7471 91.2795 18.7471C93.7462 18.7471 95.7196 19.6237 97.1996 21.3769C98.6796 23.0753 99.4196 25.5955 99.4196 28.9376V55.6466C99.4196 56.7971 99.5841 57.619 99.913 58.1121C100.297 58.5504 101.064 58.8517 102.215 59.0161L104.024 59.2626C104.627 59.3722 104.929 59.7009 104.929 60.2488C104.929 60.8514 104.6 61.1528 103.942 61.1528H90.1284C89.361 61.1528 88.9773 60.8514 88.9773 60.2488C88.9773 59.7009 89.2787 59.3722 89.8817 59.2626L91.0328 59.0982C92.184 58.9339 92.924 58.6051 93.2529 58.1121C93.6366 57.619 93.8284 56.7971 93.8284 55.6466V29.8416C93.8284 27.157 93.3351 25.2668 92.3484 24.1711C91.3617 23.0753 89.9639 22.5274 88.155 22.5274C86.4009 22.5274 84.8113 23.0479 83.3861 24.0889C82.0157 25.0751 80.9194 26.4174 80.0971 28.1158C79.2749 29.7594 78.8638 31.5948 78.8638 33.6219V55.6466C78.8638 56.7971 79.0282 57.619 79.3571 58.1121C79.7408 58.6051 80.5082 58.9065 81.6594 59.0161L83.8794 59.2626C84.4824 59.3722 84.7839 59.6735 84.7839 60.1666C84.7839 60.824 84.3727 61.1528 83.5505 61.1528H69.6548Z" fill="white"/>
<path d="M121.597 61.8924C118.966 61.8924 116.609 61.0158 114.526 59.2626C112.443 57.5094 110.771 55.0439 109.511 51.8663C108.305 48.6338 107.702 44.9082 107.702 40.6896C107.702 36.3613 108.332 32.5536 109.593 29.2663C110.854 25.979 112.58 23.404 114.773 21.5412C116.966 19.6785 119.405 18.7471 122.091 18.7471C125.325 18.7471 127.929 20.0894 129.902 22.774C131.93 25.4038 132.944 29.7046 132.944 35.6765C132.944 37.4845 132.259 38.3885 130.889 38.3885H115.266C114.17 38.3885 113.622 39.0185 113.622 40.2786C113.622 46.0861 114.471 50.4418 116.171 53.3455C117.87 56.2493 120.035 57.7011 122.666 57.7011C124.749 57.7011 126.449 56.9615 127.764 55.4822C129.08 54.003 130.149 51.5101 130.971 48.0037C131.135 47.4011 131.492 47.0997 132.04 47.0997C132.698 47.0997 132.944 47.6476 132.78 48.7434C131.903 53.6195 130.505 57.0437 128.586 59.0161C126.668 60.9336 124.338 61.8924 121.597 61.8924ZM115.02 36.3339H123.324C125.955 36.3339 127.271 34.9642 127.271 32.2248C127.271 28.6636 126.832 25.8695 125.955 23.8423C125.078 21.8152 123.763 20.8016 122.009 20.8016C119.871 20.8016 118.062 22.0343 116.582 24.4998C115.157 26.9652 114.225 30.4716 113.786 35.019C113.677 35.8956 114.088 36.3339 115.02 36.3339Z" fill="white"/>
<path d="M145.81 61.8924C144.549 61.8924 143.206 61.728 141.781 61.3993C140.356 61.1254 139.204 60.7693 138.327 60.331C137.834 60.057 137.587 59.5913 137.587 58.9339L137.341 49.7295C137.341 48.7981 137.697 48.3324 138.41 48.3324C139.013 48.3324 139.424 48.7707 139.643 49.6473C140.575 53.5373 141.699 56.1945 143.014 57.619C144.384 59.0434 146.029 59.7557 147.947 59.7557C149.537 59.7557 150.853 59.153 151.894 57.9477C152.936 56.6876 153.456 54.9618 153.456 52.7702C153.456 50.5787 152.853 48.6338 151.648 46.9354C150.442 45.2369 148.413 43.3742 145.563 41.347C142.713 39.4294 140.63 37.5119 139.314 35.5943C137.998 33.6219 137.341 31.4852 137.341 29.1841C137.341 26.0612 138.437 23.541 140.63 21.6234C142.822 19.7059 145.727 18.7471 149.345 18.7471C150.442 18.7471 151.51 18.884 152.552 19.158C153.593 19.3771 154.525 19.7606 155.348 20.3085C155.841 20.6372 156.088 21.0755 156.088 21.6234L156.252 30.6634C156.252 31.4852 155.923 31.8961 155.265 31.8961C154.882 31.8961 154.608 31.7865 154.443 31.5674C154.279 31.2935 154.142 30.9647 154.032 30.5812C152.936 27.02 151.839 24.5546 150.743 23.1849C149.647 21.7604 148.304 21.0482 146.714 21.0482C145.289 21.0482 144.11 21.5412 143.179 22.5274C142.247 23.5136 141.781 24.7463 141.781 26.2256C141.781 28.1432 142.356 29.8142 143.507 31.2387C144.659 32.6632 146.742 34.4164 149.756 36.4983C152.497 38.4707 154.553 40.6074 155.923 42.9085C157.348 45.1548 158.061 47.6202 158.061 50.3048C158.061 53.8112 156.937 56.6328 154.69 58.7695C152.442 60.8514 149.482 61.8924 145.81 61.8924Z" fill="white"/>
<path d="M166.674 78C165.194 78 164.016 77.4795 163.139 76.4385C162.262 75.4524 161.823 74.3018 161.823 72.9869C161.823 71.946 162.125 71.0693 162.728 70.3571C163.331 69.6449 164.153 69.2887 165.194 69.2887C166.072 69.2887 166.702 69.4805 167.086 69.864C167.469 70.2475 167.743 70.6858 167.908 71.1789C168.072 71.672 168.237 72.1103 168.401 72.4938C168.566 72.8773 168.895 73.0691 169.388 73.0691C169.991 73.0691 170.539 72.6308 171.032 71.7542C171.526 70.9324 172.211 69.1518 173.088 66.4124C173.636 64.7688 173.965 63.3443 174.075 62.1389C174.239 60.9336 174.212 59.6461 173.992 58.2764C173.828 56.9067 173.417 55.2357 172.759 53.2633L163.797 24.7463C163.413 23.4314 163.029 22.5822 162.646 22.1987C162.317 21.8152 161.769 21.5412 161.001 21.3769L159.768 21.1303C159.055 20.966 158.699 20.6099 158.699 20.062C158.699 19.5141 159.083 19.2402 159.85 19.2402H173.417C174.184 19.2402 174.568 19.5141 174.568 20.062C174.568 20.6646 174.212 21.0208 173.499 21.1303L172.183 21.2947C170.868 21.4591 170.018 21.7878 169.635 22.2809C169.306 22.7192 169.333 23.541 169.717 24.7463L176.952 48.8255C177.117 49.3734 177.364 49.6473 177.692 49.6473C178.076 49.6473 178.35 49.3734 178.515 48.8255L185.504 26.2256C185.942 24.7463 186.052 23.6506 185.833 22.9383C185.668 22.1713 184.901 21.6782 183.53 21.4591L181.804 21.1303C181.091 20.966 180.735 20.6099 180.735 20.062C180.735 19.5141 181.118 19.2402 181.886 19.2402H192.328C193.096 19.2402 193.479 19.5415 193.479 20.1442C193.479 20.692 193.15 21.0755 192.493 21.2947L191.753 21.5412C190.93 21.8152 190.245 22.3083 189.697 23.0205C189.149 23.7328 188.573 24.9655 187.97 26.7187L175.719 64.9331C174.513 68.7683 173.417 71.6172 172.43 73.48C171.498 75.3428 170.594 76.5481 169.717 77.096C168.84 77.6987 167.826 78 166.674 78Z" fill="white"/>
<path d="M202.659 61.8924C201.399 61.8924 200.056 61.728 198.63 61.3993C197.205 61.1254 196.054 60.7693 195.177 60.331C194.684 60.057 194.437 59.5913 194.437 58.9339L194.19 49.7295C194.19 48.7981 194.547 48.3324 195.259 48.3324C195.862 48.3324 196.273 48.7707 196.493 49.6473C197.425 53.5373 198.548 56.1945 199.864 57.619C201.234 59.0434 202.879 59.7557 204.797 59.7557C206.387 59.7557 207.702 59.153 208.744 57.9477C209.785 56.6876 210.306 54.9618 210.306 52.7702C210.306 50.5787 209.703 48.6338 208.497 46.9354C207.291 45.2369 205.263 43.3742 202.413 41.347C199.562 39.4294 197.479 37.5119 196.164 35.5943C194.848 33.6219 194.19 31.4852 194.19 29.1841C194.19 26.0612 195.287 23.541 197.479 21.6234C199.672 19.7059 202.577 18.7471 206.195 18.7471C207.291 18.7471 208.36 18.884 209.402 19.158C210.443 19.3771 211.375 19.7606 212.197 20.3085C212.691 20.6372 212.937 21.0755 212.937 21.6234L213.102 30.6634C213.102 31.4852 212.773 31.8961 212.115 31.8961C211.731 31.8961 211.457 31.7865 211.293 31.5674C211.128 31.2935 210.991 30.9647 210.882 30.5812C209.785 27.02 208.689 24.5546 207.593 23.1849C206.497 21.7604 205.154 21.0482 203.564 21.0482C202.139 21.0482 200.96 21.5412 200.028 22.5274C199.096 23.5136 198.63 24.7463 198.63 26.2256C198.63 28.1432 199.206 29.8142 200.357 31.2387C201.508 32.6632 203.591 34.4164 206.606 36.4983C209.347 38.4707 211.403 40.6074 212.773 42.9085C214.198 45.1548 214.911 47.6202 214.911 50.3048C214.911 53.8112 213.787 56.6328 211.54 58.7695C209.292 60.8514 206.332 61.8924 202.659 61.8924Z" fill="white"/>
</svg>
